<svg width="17" height="17" viewBox="0 0 17 17" fill="none" xmlns="http://www.w3.org/2000/svg">
<path d="M9.88672 5.98672C9.98172 6.10071 10.1224 6.16663 10.2708 6.16663H10.9792C11.5415 6.16663 11.9335 6.16701 12.2387 6.19169C12.5383 6.21591 12.7105 6.26108 12.8411 6.32679C13.1285 6.47148 13.3618 6.70477 13.5065 6.99221C13.5722 7.12275 13.6174 7.29501 13.6416 7.59454C13.6663 7.89983 13.6667 8.29181 13.6667 8.85413C13.6667 9.41644 13.6663 9.80843 13.6416 10.1137C13.6174 10.4132 13.5722 10.5855 13.5065 10.716C13.3618 11.0035 13.1285 11.2368 12.8411 11.3815C12.7105 11.4472 12.5383 11.4923 12.2387 11.5166C11.9335 11.5412 11.5415 11.5416 10.9792 11.5416H7.45C6.8817 11.5416 6.48554 11.5412 6.17712 11.516C5.87454 11.4913 5.70069 11.4452 5.56901 11.3781C5.28677 11.2343 5.0573 11.0049 4.91349 10.7226C4.8464 10.5909 4.80031 10.4171 4.77559 10.1145C4.75039 9.80609 4.75 9.40993 4.75 8.84163V6.43598C4.75 5.5594 4.75769 5.25448 4.84157 5.02557C4.99333 4.61136 5.31974 4.28496 5.73394 4.13319C5.96285 4.04932 6.26777 4.04163 7.14436 4.04163C7.57462 4.04163 7.72191 4.04386 7.85519 4.07031C8.09388 4.11767 8.31746 4.22239 8.50665 4.37544C8.61229 4.4609 8.70831 4.57262 8.98375 4.90315L9.88672 5.98672Z" stroke="white" stroke-linejoin="round"/>
<path d="M12.0417 11.3333V11.7666C12.0417 12.6067 12.0417 13.0267 11.8782 13.3476C11.7344 13.6299 11.5049 13.8593 11.2227 14.0031C10.9018 14.1666 10.4817 14.1666 9.64167 14.1666H4.525C3.68492 14.1666 3.26488 14.1666 2.94401 14.0031C2.66177 13.8593 2.4323 13.6299 2.28849 13.3476C2.125 13.0267 2.125 12.6067 2.125 11.7666V8.06663C2.125 7.22655 2.125 6.80651 2.28849 6.48564C2.4323 6.2034 2.66177 5.97393 2.94401 5.83012C3.26488 5.66663 3.68492 5.66663 4.525 5.66663H4.95833" stroke="white" stroke-linejoin="round"/>
</svg>
