<svg width="15" height="15" viewBox="0 0 15 15" fill="none" xmlns="http://www.w3.org/2000/svg">
<path d="M6.08221 13.4224L6.00901 13.917L6.08221 13.4224ZM12.6471 11.5226L12.2267 11.2519L12.6471 11.5226ZM8.48626 13.1627L8.41555 12.6677L8.48626 13.1627ZM12.0899 12.1651L12.4174 12.5429L12.0899 12.1651ZM12.0899 2.83489L12.4174 2.45706L12.0899 2.83489ZM12.6471 3.47736L13.0674 3.20661L12.6471 3.47736ZM7.47951 2.19858L8.41555 2.3323L8.55697 1.34235L7.62093 1.20863L7.47951 2.19858ZM12.625 7.18584V7.81416H13.625V7.18584H12.625ZM8.41555 12.6677L7.35707 12.8189L7.49849 13.8089L8.55697 13.6577L8.41555 12.6677ZM7.35707 12.8189C6.61472 12.925 6.35268 12.957 6.15541 12.9278L6.00901 13.917C6.38716 13.973 6.83036 13.9043 7.49849 13.8089L7.35707 12.8189ZM3.875 10.6662C3.875 11.3411 3.86967 11.7896 3.97855 12.156L4.93713 11.8712C4.88033 11.6801 4.875 11.4161 4.875 10.6662H3.875ZM6.15541 12.9278C5.57842 12.8424 5.10326 12.4303 4.93713 11.8712L3.97855 12.156C4.25543 13.0879 5.04737 13.7747 6.00901 13.917L6.15541 12.9278ZM12.625 7.81416C12.625 8.81329 12.6244 9.52517 12.5678 10.0812C12.5122 10.6276 12.4064 10.973 12.2267 11.2519L13.0674 11.7934C13.3657 11.3303 13.4988 10.8103 13.5627 10.1824C13.6256 9.56408 13.625 8.79271 13.625 7.81416H12.625ZM8.55697 13.6577C9.52568 13.5193 10.2894 13.4108 10.8926 13.2611C11.5051 13.109 12.0011 12.9037 12.4174 12.5429L11.7624 11.7873C11.5117 12.0045 11.1848 12.1582 10.6517 12.2905C10.1093 12.4251 9.40464 12.5264 8.41555 12.6677L8.55697 13.6577ZM12.2267 11.2519C12.0982 11.4515 11.9418 11.6318 11.7624 11.7873L12.4174 12.5429C12.6685 12.3252 12.8874 12.0728 13.0674 11.7934L12.2267 11.2519ZM8.41555 2.3323C9.40464 2.4736 10.1093 2.57487 10.6517 2.7095C11.1848 2.84182 11.5117 2.99547 11.7624 3.21272L12.4174 2.45706C12.0011 2.09627 11.5051 1.89098 10.8926 1.73895C10.2894 1.58923 9.52568 1.48073 8.55697 1.34235L8.41555 2.3323ZM13.625 7.18584C13.625 6.20729 13.6256 5.43592 13.5627 4.8176C13.4988 4.18972 13.3657 3.66971 13.0674 3.20661L12.2267 3.74812C12.4064 4.02697 12.5122 4.37236 12.5678 4.91882C12.6244 5.47483 12.625 6.18671 12.625 7.18584H13.625ZM11.7624 3.21272C11.9418 3.36823 12.0982 3.54851 12.2267 3.74812L13.0674 3.20661C12.8874 2.92716 12.6685 2.67477 12.4174 2.45706L11.7624 3.21272ZM7.62093 1.20863C7.21759 1.15101 6.8946 1.10468 6.63137 1.08208C6.36563 1.05926 6.12761 1.05711 5.89585 1.10237L6.08751 2.08383C6.1874 2.06432 6.31968 2.059 6.54582 2.07841C6.77446 2.09804 7.06492 2.13935 7.47951 2.19858L7.62093 1.20863ZM4.875 4.45746C4.875 4.03866 4.87519 3.74528 4.88809 3.51616C4.90085 3.28955 4.92483 3.15934 4.95826 3.06322L4.01377 2.73468C3.93619 2.95771 3.90466 3.19365 3.88967 3.45994C3.87481 3.72373 3.875 4.05003 3.875 4.45746H4.875ZM5.89585 1.10237C5.02275 1.27287 4.30603 1.89448 4.01377 2.73468L4.95826 3.06322C5.13362 2.55909 5.56365 2.18613 6.08751 2.08383L5.89585 1.10237Z" fill="white"/>
<path d="M10 7.5L10.3904 7.18765L10.6403 7.5L10.3904 7.81235L10 7.5ZM2.5 8C2.22386 8 2 7.77614 2 7.5C2 7.22386 2.22386 7 2.5 7V8ZM7.89043 4.06265L10.3904 7.18765L9.60957 7.81235L7.10957 4.68735L7.89043 4.06265ZM10.3904 7.81235L7.89043 10.9373L7.10957 10.3127L9.60957 7.18765L10.3904 7.81235ZM10 8H2.5V7H10V8Z" fill="white"/>
</svg>
