<svg width="100%" height="auto" viewBox="0 0 100% auto" fill="none" xmlns="http://www.w3.org/2000/svg">
<g opacity="0.6">
<g opacity="0.6">
<path d="M0 279C730.139 279 1460.28 279 2190.42 279" stroke="url(#paint0_linear_101_202)" stroke-miterlimit="10"/>
<path d="M0 271.202C369.724 271.26 739.266 269.866 1108.9 268.289C1268.83 267.602 1429.86 267.828 1589.77 269.274C1789.95 271.082 1990.22 269.379 2190.36 271.202" stroke="url(#paint1_linear_101_202)" stroke-miterlimit="10"/>
<path d="M0 263.52C104.76 263.52 209.55 263.798 314.295 263.661C407.905 263.541 501.302 260.926 594.881 260.475C769.202 259.637 943.492 260.612 1117.8 259.621C1272.51 258.741 1428.82 256.409 1583.43 259.967C1673.54 262.063 1762.72 263.017 1852.91 263.882C1965.47 264.961 2077.9 262.032 2190.42 263.52" stroke="url(#paint2_linear_101_202)" stroke-miterlimit="10"/>
<path d="M0 255.943C103.254 255.943 206.782 256.54 310.005 255.895C407.007 255.287 503.446 251.027 600.372 249.932C775.028 247.956 948.314 253.6 1122.79 252.594C1276.31 251.724 1427.67 244.66 1581.36 250.98C1671.2 254.674 1758.25 257.567 1848.74 258.411C1962.83 259.459 2076.35 254.36 2190.42 255.943" stroke="url(#paint3_linear_101_202)" stroke-miterlimit="10"/>
<path d="M0 248.512C101.383 248.512 203.511 249.465 304.818 248.15C406.125 246.835 505.987 240.782 606.989 238.828C698.804 237.051 789.326 237.528 880.655 241.395C962.506 244.864 1042.02 247.369 1124.54 246.992C1196.87 246.657 1264.63 242.873 1336.06 239.346C1417.81 235.306 1501.97 237.193 1582.96 242.339C1672.1 248.009 1756.17 253.432 1847.19 254.051C1962.01 254.837 2075.53 247.155 2190.42 248.512" stroke="url(#paint4_linear_101_202)" stroke-miterlimit="10"/>
<path d="M0 241.186C99.1925 241.186 199.891 242.47 298.916 240.415C404.725 238.225 508.74 230.291 614.321 227.315C704.973 224.726 796.23 226.5 885.461 232.586C965.123 237.942 1042.14 242.726 1123.56 242.506C1198.96 242.302 1267.19 235.725 1340.38 230.406C1423.47 224.369 1505.68 226.659 1587.51 233.98C1675.2 241.841 1756.15 250.309 1847.8 250.534C1962.81 250.823 2075.21 240.305 2190.42 241.191" stroke="url(#paint5_linear_101_202)" stroke-miterlimit="10"/>
<path d="M0 233.975C96.8499 233.944 196.073 235.547 292.588 232.743C403.387 229.552 511.63 219.706 622.018 215.592C714.654 212.144 800.263 215.351 889.614 224.013C966.111 231.433 1040.21 238.864 1120.44 238.88C1199.79 238.88 1270.37 229.002 1345.66 221.791C1431.44 213.58 1510.54 215.969 1594.35 225.889C1679.66 235.982 1757.98 247.899 1850.13 247.637C1964.97 247.28 2075.25 233.734 2190.42 233.975" stroke="url(#paint6_linear_101_202)" stroke-miterlimit="10"/>
<path d="M0 226.88C94.4009 226.832 192.133 228.614 285.971 225.166C401.85 220.911 514.14 209.162 629.608 203.859C723.538 199.546 805.07 204.157 892.976 215.697C965.503 225.218 1036.74 235.537 1115.67 235.862C1199.09 236.207 1274.29 222.64 1351.44 213.506C1440.53 202.957 1516.61 205.2 1602.7 218.055C1684.69 230.296 1761.14 246.012 1853.69 245.132C1968.12 244.042 2075.5 227.383 2190.39 226.88" stroke="url(#paint7_linear_101_202)" stroke-miterlimit="10"/>
<path d="M0 219.9C91.9823 219.837 188.193 221.734 279.491 217.714C400.329 212.395 516.68 198.802 636.955 192.314C732.786 187.142 809.694 193.064 895.744 207.642C963.799 219.171 1032.16 232.487 1109.99 233.189C1197.49 233.97 1278.73 216.347 1357.66 205.515C1399.01 199.871 1442.59 194.584 1487.66 195.799C1531.77 196.994 1573.54 203.393 1612.12 210.472C1689.88 224.71 1765.63 244.309 1858.16 242.81C1972.09 240.961 2075.88 221.199 2190.43 219.915" stroke="url(#paint8_linear_101_202)" stroke-miterlimit="10"/>
<path d="M0.074707 213.04C89.821 212.961 184.465 214.905 273.269 210.42C398.716 204.1 518.702 188.751 643.434 181.142C741.455 175.157 813.922 182.279 897.644 199.86C961.121 213.192 1026.62 229.484 1103.76 230.59C1195.02 231.895 1283.25 210.126 1363.69 197.806C1405.82 191.35 1452.29 184.543 1499.36 186.042C1543.47 187.446 1584.8 195.118 1621.68 203.073C1695.23 218.94 1770.21 242.496 1862.96 240.394C1976.41 237.816 2076.2 215.052 2190.45 213.04" stroke="url(#paint9_linear_101_202)" stroke-miterlimit="10"/>
<path d="M0.0908813 206.301C87.6924 206.206 180.937 208.151 267.474 203.335C397.013 196.119 520.224 179.151 648.82 170.525C697.785 167.244 744.194 165.347 792.155 171.101C831.233 175.791 865.61 184.024 898.771 192.346C958.095 207.223 1020.72 226.303 1097.67 227.797C1192.29 229.636 1287.6 203.922 1369.35 190.344C1412.21 183.222 1461.54 174.974 1510.4 176.719C1554.71 178.291 1595.49 187.132 1630.8 195.862C1700.43 213.071 1774.51 240.311 1867.77 237.675C1980.81 234.473 2076.46 208.889 2190.51 206.275" stroke="url(#paint10_linear_101_202)" stroke-miterlimit="10"/>
<path d="M0.105835 199.672C85.8668 199.572 177.849 201.506 262.393 196.47C395.218 188.557 520.771 170.132 652.607 160.694C701.739 157.178 748.012 154.998 795.73 161.527C834.442 166.857 867.435 176.001 898.983 185.14C954.824 201.296 1014.83 222.771 1092.17 224.579C1141.59 225.737 1191.28 216.855 1233.97 209.335C1281.32 200.992 1326.85 191.486 1374.18 183.133C1417.69 175.462 1469.4 166.05 1519.91 168.015C1564.54 169.75 1604.68 179.491 1638.72 188.872C1705.16 207.213 1777.84 237.533 1872 234.462C1984.84 230.794 2076.49 202.664 2190.52 199.651" stroke="url(#paint11_linear_101_202)" stroke-miterlimit="10"/>
<path d="M0.120544 193.163C84.3452 193.064 175.354 195.003 258.27 189.872C393.438 181.514 520.451 161.831 654.493 151.806C703.397 148.138 750.019 145.796 797.25 152.792C835.917 158.519 867.922 168.45 898.329 178.218C951.842 195.401 1009.58 218.657 1087.86 220.664C1138.64 221.954 1189.78 212.332 1233.13 204.378C1282.06 195.39 1328.96 185.161 1377.89 176.164C1422.01 168.046 1475.25 157.896 1527.1 159.966C1572.2 161.768 1611.66 172.118 1644.77 182.038C1709.16 201.317 1779.62 233.813 1875.29 230.537C1988.12 226.675 2076.27 196.286 2190.54 193.184" stroke="url(#paint12_linear_101_202)" stroke-miterlimit="10"/>
<path d="M0.151184 186.77C83.1893 186.686 173.635 188.662 255.335 183.573C391.643 175.084 519.006 154.369 654.082 144.072C702.317 140.403 749.806 138.014 796.368 145.057C835.354 150.952 866.918 161.417 896.762 171.599C949.424 189.594 1005.46 213.784 1085.38 215.733C1137.28 217.001 1188.56 207.281 1232.52 198.964C1282.49 189.532 1330.25 178.778 1380.21 169.335C1424.88 160.888 1478.35 150.575 1531.27 152.629C1576.9 154.4 1615.69 164.939 1648.4 175.283C1712.28 195.485 1779.38 228.803 1877.28 225.559C1990.4 221.812 2075.89 189.553 2190.63 186.78" stroke="url(#paint13_linear_101_202)" stroke-miterlimit="10"/>
<path d="M0.166382 180.482C82.9003 180.303 173.057 182.525 254.407 177.337C389.787 168.686 515.523 147.352 649.534 136.814C697.632 133.036 745.091 130.772 791.622 137.731C831.172 143.658 863.358 154.248 893.644 164.556C947.279 182.814 1003.91 207.312 1084.88 209.597C1137.15 211.069 1188.12 201.469 1232.28 193.022C1282.32 183.442 1329.99 172.48 1380.02 162.895C1424.91 154.29 1478.11 144.119 1531.42 146.32C1577.36 148.217 1615.92 158.776 1648.68 169.236C1712.83 189.72 1778.65 222.598 1877.32 219.543C1990.77 216.043 2075.37 182.903 2190.58 180.482" stroke="url(#paint14_linear_101_202)" stroke-miterlimit="10"/>
<path d="M0.181458 174.335C83.2652 174.01 173.148 176.813 254.787 171.264C387.764 162.224 510.671 140.54 642.233 129.629C690.908 125.589 737.12 123.488 784.321 130.494C824.585 136.463 857.913 146.943 889.309 157.162C944.723 175.22 1003.74 199.965 1084.71 203.083C1136.66 205.085 1187.81 195.459 1231.59 187.016C1281.03 177.484 1327.99 166.511 1377.41 156.968C1422.2 148.316 1475.4 138.224 1528.64 140.838C1574.44 143.087 1613.56 153.798 1646.78 164.142C1711.26 184.213 1778.98 216.472 1876.47 213.506C1990.19 210.042 2075.07 176.714 2190.55 174.335" stroke="url(#paint15_linear_101_202)" stroke-miterlimit="10"/>
<path d="M0.212158 168.292C83.7675 167.905 173.407 171.489 255.548 165.615C385.817 156.297 505.514 134.33 634.308 123.168C683.394 118.902 728.526 117 776.259 123.917C817.147 129.844 851.813 140.052 884.381 150.192C941.651 168.01 1003.39 192.665 1084.29 196.538C1135.76 199.006 1186.52 189.579 1229.9 181.173C1278.5 171.741 1324.47 160.835 1373.04 151.408C1417.7 142.741 1470.39 132.936 1523.39 135.923C1569.24 138.512 1609.06 149.27 1643.03 159.504C1708.36 179.156 1778.3 210.608 1875.04 207.684C1989.26 204.236 2074.61 170.693 2190.6 168.324" stroke="url(#paint16_linear_101_202)" stroke-miterlimit="10"/>
<path d="M0.243408 162.366C84.3768 161.994 173.971 166.527 256.69 160.354C383.977 150.863 500.191 128.67 625.958 117.315C675.242 112.866 719.522 111.194 767.65 117.912C809.268 123.718 845.228 133.633 879.057 143.59C938.716 161.087 1002.62 185.387 1083.74 189.972C1134.61 192.844 1184.47 183.825 1227.43 175.477C1274.96 166.233 1319.76 155.422 1367.26 146.168C1411.75 137.495 1463.43 128.178 1516.1 131.495C1562.16 134.403 1602.81 145.12 1637.79 155.213C1704.43 174.429 1776.87 204.917 1873.1 202.009C1988.02 198.535 2074.02 164.766 2190.71 162.382" stroke="url(#paint17_linear_101_202)" stroke-miterlimit="10"/>
<path d="M0.258484 156.554C85.0763 156.261 174.64 161.884 258.104 155.443C382.197 145.869 494.715 123.477 617.241 112.059C666.495 107.458 710.167 106.027 758.539 112.452C800.902 118.08 838.124 127.649 873.338 137.301C935.704 154.4 1001.55 178.118 1082.98 183.364C1181.24 189.699 1280.54 156.727 1360.17 141.184C1404.5 132.527 1454.77 123.855 1506.99 127.486C1553.42 130.719 1594.91 141.331 1631.1 151.272C1699.43 170.038 1774.57 199.436 1870.56 196.512C1986.33 192.99 2073.15 158.975 2190.68 156.554" stroke="url(#paint18_linear_101_202)" stroke-miterlimit="10"/>
<path d="M0.288574 150.863C85.8518 150.701 175.431 157.529 259.762 150.863C380.524 141.284 489.163 118.787 608.282 107.332C657.368 102.615 700.614 101.442 749.123 107.494C792.262 112.886 830.776 122.031 867.375 131.38C932.448 147.991 1000.26 170.918 1082.1 176.813C1178.87 183.773 1273.9 151.754 1352.05 136.463C1395.27 128.021 1445.65 119.51 1496.44 123.86C1543.59 127.895 1585.13 137.678 1623.37 147.635C1693.66 165.924 1771.7 194.133 1867.68 191.177C1984.44 187.587 2072.2 153.316 2190.71 150.827" stroke="url(#paint19_linear_101_202)" stroke-miterlimit="10"/>
<path d="M0.318787 145.282C86.6882 145.282 176.358 153.421 261.633 146.509C378.957 136.997 483.61 114.406 599.216 103.014C800.004 83.2104 904.748 156.318 1081.12 170.31C1176.19 177.861 1266.41 146.996 1343.15 132.014C1386.17 123.629 1434.6 115.994 1484.75 120.59C1532.5 124.965 1575.02 134.534 1614.79 144.302C1687.28 162.119 1768.34 189.044 1864.52 186.042C1982.36 182.373 2071.15 147.834 2190.75 145.282" stroke="url(#paint20_linear_101_202)" stroke-miterlimit="10"/>
<path d="M0.349304 139.822C87.5553 140.042 177.378 149.516 263.671 142.4C377.497 133.015 478.149 110.371 590.15 99.0782C786.785 79.2592 906.544 148.861 1080.07 163.854C1173.5 171.935 1258.3 142.437 1333.64 127.743C1376.48 119.39 1422.8 112.761 1472.23 117.566C1520.62 122.282 1564.22 131.61 1605.59 141.174C1680.4 158.467 1764.55 184.097 1861.14 181.027C1980.14 177.248 2070.04 142.458 2190.8 139.822" stroke="url(#paint21_linear_101_202)" stroke-miterlimit="10"/>
<path d="M0.379639 134.477C88.4527 134.922 178.458 145.78 265.831 138.485C376.173 129.273 472.704 106.603 581.236 95.4623C773.704 75.701 908.278 141.499 1078.99 157.492C1170.75 166.086 1249.79 138.04 1323.8 123.634C1366.49 115.328 1410.51 109.763 1459.18 114.726C1508.24 119.751 1552.96 128.875 1595.98 138.203C1673.19 154.972 1760.44 179.266 1857.52 176.127C1977.69 172.233 2068.77 137.181 2190.74 134.456" stroke="url(#paint22_linear_101_202)" stroke-miterlimit="10"/>
<path d="M0.409851 129.247C89.3347 129.923 179.598 142.169 268.128 134.723C375.063 125.72 467.608 103.04 572.641 92.0875C761.017 72.4415 909.981 134.288 1077.9 151.24C1167.99 160.338 1241.1 133.785 1313.85 119.657C1356.35 111.403 1398.23 106.933 1446.1 112.074C1495.84 117.419 1541.73 126.312 1586.36 135.409C1665.99 151.654 1756.32 174.607 1854.01 171.39C1975.44 167.386 2067.65 132.087 2190.83 129.247" stroke="url(#paint23_linear_101_202)" stroke-miterlimit="10"/>
<path d="M0.440308 124.138C90.1866 125.039 180.754 138.643 270.303 131.071C373.952 122.303 462.588 99.6285 564.275 88.891C748.924 69.397 911.7 127.219 1076.89 145.12C1165.35 154.71 1232.5 129.65 1304.07 115.774C1346.39 107.573 1386.21 104.198 1433.17 109.486C1483.6 115.156 1530.65 123.844 1576.87 132.69C1658.85 148.379 1752.18 170.038 1850.54 166.752C1973.19 162.638 2066.54 127.051 2190.92 124.148" stroke="url(#paint24_linear_101_202)" stroke-miterlimit="10"/>
<path d="M0.470764 119.138C91.1145 120.254 181.895 135.163 272.539 127.486C373.07 118.971 457.964 96.3113 556.487 85.8044C737.592 66.4885 913.388 120.296 1075.81 139.146C1162.79 149.239 1223.94 125.568 1294.52 111.969C1336.7 103.847 1374.44 101.489 1420.61 106.928C1471.69 112.923 1519.88 121.439 1567.61 130.028C1651.83 145.177 1748.04 165.562 1847.08 162.193C1970.89 157.974 2065.34 122.13 2190.86 119.138" stroke="url(#paint25_linear_101_202)" stroke-miterlimit="10"/>
<path d="M0.50116 114.259C91.9968 115.559 183.036 131.694 274.699 123.938C372.355 115.679 453.735 93.0202 549.307 82.7596C642.02 72.8029 740.65 84.0435 827.247 96.0543C910.757 107.641 990.144 122.838 1074.9 133.345C1160.78 143.993 1215.56 121.439 1285.61 108.191C1378.62 90.6096 1473.89 112.907 1559.03 127.365C1645.29 141.996 1744.21 161.166 1843.91 157.723C1968.8 153.415 2064.29 117.32 2190.92 114.254" stroke="url(#paint26_linear_101_202)" stroke-miterlimit="10"/>
<path d="M0.531372 109.491C92.8788 110.942 183.933 128.194 276.767 120.38C371.822 112.373 449.963 89.7294 542.964 79.6942C634.825 69.769 736.056 80.5484 823.064 91.5478C908.262 102.322 989.353 116.549 1074.09 127.743C1158.84 138.936 1208.33 117.488 1277.48 104.429C1368.39 87.2665 1467.62 111.241 1551.29 124.683C1639.36 138.831 1740.79 156.837 1841.03 153.347C1966.9 148.961 2063.33 112.624 2190.89 109.491" stroke="url(#paint27_linear_101_202)" stroke-miterlimit="10"/>
<path d="M0.562866 104.843C93.7773 106.415 184.756 124.63 278.67 116.77C371.458 109.009 446.724 86.3756 537.261 76.5343C628.422 66.6562 731.965 76.9954 819.368 87.0831C906.073 97.0974 988.791 110.471 1073.4 122.351C1113.31 127.952 1142.56 128.183 1181.15 120.957C1212.52 115.082 1239.05 106.551 1270.37 100.635C1312.15 92.7322 1345.43 92.9523 1389.2 98.8267C1441.78 105.896 1493.01 114.024 1544.61 121.921C1634.16 135.588 1737.79 152.545 1838.49 149.024C1965.23 144.591 2062.46 108.013 2190.94 104.843" stroke="url(#paint28_linear_101_202)" stroke-miterlimit="10"/>
<path d="M0.593201 100.304C94.6747 101.876 185.379 120.962 280.389 113.075C371.337 105.524 444.031 82.8069 532.743 73.217C623.432 63.4124 728.877 73.3218 816.63 82.6496C904.384 91.9774 988.639 104.659 1072.97 117.236C1111.94 123.047 1140.43 123.87 1178.69 116.68C1209.02 110.979 1234.33 102.563 1264.59 96.8195C1306.14 88.9276 1338.91 89.766 1381.91 95.8343C1434.75 103.291 1486.78 111.403 1539.35 119.08C1630.02 132.318 1735.68 148.332 1836.53 144.8C1963.97 140.341 2061.85 103.543 2190.95 100.352" stroke="url(#paint29_linear_101_202)" stroke-miterlimit="10"/>
<path d="M0.623535 95.8921C95.5873 97.4223 185.775 117.168 281.849 109.26C371.443 101.877 441.871 78.9868 529.351 69.68C619.919 60.0325 726.504 69.4913 814.805 78.1536C903.821 86.8788 988.806 99.0311 1072.79 112.3C1110.97 118.326 1139.14 119.594 1177.11 112.404C1206.62 106.823 1230.91 98.4599 1260.33 92.8265C1301.69 84.9084 1334.42 86.1923 1376.77 92.4912C1429.69 100.352 1482.32 108.485 1535.7 115.999C1626.96 128.854 1734.38 144.04 1835.16 140.535C1963.1 136.08 2061.46 99.073 2191.1 95.8921" stroke="url(#paint30_linear_101_202)" stroke-miterlimit="10"/>
<path d="M0.654053 91.5898C96.4849 92.9784 185.897 113.201 283.035 105.272C371.702 98.0354 440.609 75.046 527.039 65.8492C617.318 56.2489 725.302 65.5033 813.832 73.6259C903.76 81.8794 989.126 93.7016 1072.71 107.688C1110.27 113.976 1138.59 115.496 1176.36 108.259C1205.26 102.72 1228.79 94.3514 1257.65 88.76C1298.86 80.7737 1332.05 82.2829 1373.89 88.87C1426.71 97.1812 1479.73 105.372 1533.7 112.761C1625.24 125.29 1733.91 139.796 1834.28 136.342C1962.52 131.935 2061.12 94.7287 2191.07 91.5898" stroke="url(#paint31_linear_101_202)" stroke-miterlimit="10"/>
<path d="M0.699951 87.3976C97.0175 88.6448 185.805 109.087 283.538 101.085C371.9 93.8537 440.396 70.8853 526.552 61.7409C616.74 52.172 725.211 61.6151 813.771 69.5647C904.019 77.6663 989.111 89.3994 1072.8 103.449C1110.22 109.737 1138.94 111.047 1176.45 103.857C1205.16 98.3551 1228.54 90.0597 1257.24 84.5416C1298.31 76.6497 1332.11 78.1169 1373.56 84.8927C1426.14 93.4869 1479.23 101.74 1533.43 109.056C1624.53 121.355 1734.61 135.698 1834.2 132.113C1962.27 127.512 2061.5 90.9348 2191.12 87.4133" stroke="url(#paint32_linear_101_202)" stroke-miterlimit="10"/>
<path d="M0.72998 83.2733C97.2605 84.4576 185.79 105.036 283.75 96.9401C371.975 89.6456 440.821 66.8711 527.039 57.7843C617.226 48.2783 725.454 58.1354 813.877 66.1374C903.836 74.2809 988.563 85.993 1072.83 99.3769C1152.6 112.043 1192.13 92.5644 1257.83 80.4173C1298.9 72.8241 1332.91 74.2075 1373.99 81.0095C1426.34 89.6822 1479.34 97.9148 1533.52 105.146C1624.09 117.231 1735.6 131.642 1834.47 127.753C1961.99 122.733 2062.45 87.6437 2191.19 83.3519" stroke="url(#paint33_linear_101_202)" stroke-miterlimit="10"/>
<path d="M0.76062 79.212C97.5802 80.3544 185.897 101.085 284.161 92.9208C372.386 85.5843 441.506 63.0508 527.769 54.0479C617.957 44.6153 725.865 54.8497 814.151 62.8779C903.761 71.0266 988.168 82.6864 1072.92 95.3942C1152.02 107.258 1192.97 88.1258 1258.71 76.529C1299.79 69.2659 1334.1 70.6074 1374.81 77.4198C1426.92 86.1398 1479.76 94.3094 1533.93 101.415C1624.13 113.253 1736.76 127.512 1834.81 123.362C1961.69 117.996 2063.37 84.4314 2191.18 79.4583" stroke="url(#paint34_linear_101_202)" stroke-miterlimit="10"/>
<path d="M0.791016 75.2242C97.9452 76.3352 186.125 97.2336 284.754 89.0325C372.873 81.7065 442.404 59.4298 528.727 50.5212C618.915 41.2458 726.473 51.737 814.592 59.7704C903.776 67.893 988 79.4636 1073.06 91.4693C1151.6 102.542 1193.95 83.8341 1259.86 72.777C1301.03 65.8754 1335.61 67.217 1376.01 74.0242C1427.83 82.7598 1480.57 90.8352 1534.65 97.7734C1624.62 109.328 1737.93 123.236 1835.31 118.871C1961.56 113.217 2064.42 81.2296 2191.25 75.6434" stroke="url(#paint35_linear_101_202)" stroke-miterlimit="10"/>
<path d="M0.821289 71.3043C98.3862 72.4048 186.398 93.4657 285.53 85.2593C373.573 77.9752 443.529 55.9501 529.929 47.2197C620.086 38.1067 727.097 48.8337 815.185 56.8409C903.882 64.9111 987.848 76.3612 1073.26 87.6437C1151.2 97.9409 1195.04 79.7255 1261.25 69.2658C1302.57 62.7363 1337.42 64.125 1377.56 70.9113C1428.98 79.6912 1481.74 87.5038 1535.62 94.3146C1625.52 105.55 1739.15 118.944 1835.97 114.38C1961.4 108.495 2065.52 78.122 2191.24 72.0065" stroke="url(#paint36_linear_101_202)" stroke-miterlimit="10"/>
<path d="M0.867188 67.4581C98.8732 68.5586 186.855 89.8029 286.473 81.607C374.44 74.3806 444.868 52.6489 531.374 44.0967C621.501 35.1881 728.055 46.0827 815.976 54.0533C904.202 62.0396 987.939 73.3325 1073.55 83.8813C1150.91 93.4187 1196.33 75.7431 1262.94 65.9174C1304.45 59.7915 1339.56 61.2588 1379.48 68.0136C1430.59 76.7354 1483.16 84.4016 1536.91 90.9715C1626.86 101.856 1740.47 114.522 1836.77 109.837C1961.4 103.774 2066.71 75.0618 2191.33 68.4695" stroke="url(#paint37_linear_101_202)" stroke-miterlimit="10"/>
<path d="M0.897461 63.6954C99.4054 64.8011 187.372 86.2288 287.553 78.0958C375.459 70.9585 446.389 49.5412 532.926 41.1933C623.007 32.5049 728.998 43.5305 816.843 51.433C904.414 59.2935 988.122 70.4082 1073.82 80.2077C1150.64 88.9957 1197.73 71.9227 1264.8 62.7626C1306.54 57.0611 1341.92 58.6384 1381.67 65.3827C1432.43 74.0212 1484.76 81.515 1538.34 87.8166C1628.44 98.2973 1741.7 110.12 1837.59 105.325C1961.35 99.141 2067.8 72.1218 2191.3 65.126" stroke="url(#paint38_linear_101_202)" stroke-miterlimit="10"/>
<path d="M0.927917 60.0061C99.9835 61.1381 188.026 82.7702 288.785 74.6791C376.63 67.6675 448.077 46.5909 534.705 38.4683C624.726 30.0314 730.139 41.1357 817.787 48.949C904.749 56.7047 988.365 67.5679 1074.1 76.6128C1150.38 84.6567 1199.24 68.2282 1266.81 59.7703C1308.81 54.53 1344.46 56.2279 1384.09 62.9145C1434.51 71.4506 1486.63 78.7442 1540.05 84.7405C1630.43 94.8177 1743.06 105.639 1838.6 100.76C1961.46 94.4719 2069 69.2082 2191.35 61.8507" stroke="url(#paint39_linear_101_202)" stroke-miterlimit="10"/>
<path d="M0.958191 56.4009C100.607 57.5643 188.634 79.406 290.139 71.425C377.923 64.5182 449.933 43.7979 536.652 35.9269C626.596 27.7677 731.356 38.9087 818.882 46.6225C905.236 54.2367 988.776 64.8274 1074.43 73.1071C1150.2 80.4436 1200.93 64.6859 1269.03 56.9564C1311.32 52.1615 1347.24 54.0428 1386.78 60.6247C1436.85 69.0313 1488.72 76.102 1541.93 81.7747C1632.67 91.3907 1744.38 101.096 1839.65 96.1594C1961.6 89.871 2070.16 66.3419 2191.35 58.6805" stroke="url(#paint40_linear_101_202)" stroke-miterlimit="10"/>
<path d="M0.988892 52.8846C101.261 54.0899 189.38 76.1412 291.524 68.2702C379.353 61.5259 451.926 41.162 538.752 33.5635C628.605 25.703 732.634 36.8387 820.16 44.4372C905.875 51.889 989.354 62.1757 1074.92 69.6851C1150.17 76.2932 1202.87 61.2692 1271.54 54.3048C1314.13 49.9867 1350.32 52.0514 1389.82 58.6018C1439.53 66.8609 1491.14 73.6845 1544.12 79.0025C1635.21 88.1259 1745.79 96.6362 1840.85 91.6422C1961.84 85.3171 2071.38 63.6221 2191.41 55.6987" stroke="url(#paint41_linear_101_202)" stroke-miterlimit="10"/>
<path d="M1.01923 49.4732C101.915 50.7152 190.141 72.9761 293.181 65.2362C380.874 58.6438 454.056 38.6781 540.973 31.3678C630.719 23.8165 734.034 34.926 821.361 42.3726C906.453 49.6461 989.871 59.5923 1075.25 66.3366C1150.03 72.2477 1204.82 57.9521 1274.02 51.7894C1316.91 47.9588 1353.39 50.2173 1392.91 56.7206C1442.24 64.8145 1493.57 71.3718 1546.3 76.3142C1637.98 84.9084 1747.19 92.0877 1842.1 87.1041C1962.14 80.8157 2072.55 60.9443 2191.44 52.7956" stroke="url(#paint42_linear_101_202)" stroke-miterlimit="10"/>
<path d="M1.04956 46.1193C102.676 47.4346 191.068 69.9104 294.839 62.3172C382.517 55.9083 456.337 36.3408 543.315 29.3345C632.985 22.1186 735.524 33.1652 822.73 40.4859C907.183 47.5761 990.541 57.145 1075.69 63.1242C1150.03 68.3645 1206.98 54.8392 1276.69 49.4993C1319.91 46.1717 1356.66 48.6713 1396.24 55.0855C1445.2 62.9979 1496.25 69.2714 1548.69 73.8197C1640.93 81.8479 1748.62 87.649 1843.4 82.6602C1962.51 76.398 2073.7 58.4236 2191.47 50.0862" stroke="url(#paint43_linear_101_202)" stroke-miterlimit="10"/>
<path d="M1.07996 42.8754C103.436 44.2589 191.981 66.9496 296.619 59.524C384.221 53.3037 458.634 34.1503 545.764 27.4636C635.313 20.5883 737.06 31.5563 824.13 38.7146C907.974 45.6057 991.225 54.771 1076.1 59.9852C1150.06 64.5285 1209.22 51.8207 1279.46 47.2773C1322.98 44.4633 1359.99 47.2092 1399.71 53.5657C1448.28 61.2813 1499.04 67.2519 1551.17 71.3829C1643.95 78.8032 1750.01 83.1632 1844.74 78.1953C1962.92 72.0065 2074.81 55.9291 2191.5 47.4241" stroke="url(#paint44_linear_101_202)" stroke-miterlimit="10"/>
<path d="M1.11041 39.7314C104.182 41.1882 192.955 64.0937 298.399 56.8463C386.016 50.8252 461.053 32.0962 548.289 25.7397C637.716 19.2259 738.658 30.0839 825.666 37.0745C908.917 43.7664 992.047 52.4916 1076.65 56.9459C1150.29 60.8185 1211.7 48.9387 1282.44 45.2337C1326.28 42.9332 1363.55 45.9412 1403.42 52.2034C1451.62 59.7194 1502.07 65.3817 1553.87 69.0877C1647.29 75.8635 1751.53 78.7352 1846.23 73.8041C1963.36 67.6938 2075.92 53.5554 2191.53 44.9088" stroke="url(#paint45_linear_101_202)" stroke-miterlimit="10"/>
<path d="M1.14081 36.6867C104.957 38.2221 193.958 61.3163 300.27 54.289C387.886 48.4774 463.547 30.1729 550.89 24.1623C640.195 18.0311 740.316 28.7528 827.217 35.5652C909.906 42.0475 992.883 50.3063 1077.12 54.006C1150.5 57.2288 1214.15 46.1926 1285.35 43.3262C1329.46 41.5497 1367.02 44.8302 1407.04 51.0138C1454.86 58.316 1505.01 63.6542 1556.46 66.9182C1650.46 73.0127 1752.87 74.37 1847.57 69.4755C1963.85 63.47 2076.85 51.2863 2191.45 42.5139" stroke="url(#paint46_linear_101_202)" stroke-miterlimit="10"/>
<path d="M1.17126 33.7521C105.749 35.3661 195.008 58.6961 302.171 51.8522C389.773 46.2503 466.103 28.386 553.552 22.7474C642.705 16.983 741.989 27.5842 828.875 34.208C911.016 40.4964 993.811 48.2469 1077.7 51.1972C1150.94 53.7755 1216.76 43.5987 1288.51 41.5759C1332.95 40.3235 1370.65 43.8922 1411.06 49.9919C1458.51 57.0766 1508.36 62.0835 1559.43 64.8955C1773.9 77.1002 1984.08 56.5109 2191.67 40.2659" stroke="url(#paint47_linear_101_202)" stroke-miterlimit="10"/>
<path d="M1.2016 30.9119C106.555 32.615 196.073 56.1494 304.118 49.5203C391.72 44.1438 468.704 26.7249 556.26 21.4164C645.261 16.0189 743.708 26.4891 830.412 32.919C912.081 38.9925 994.632 46.2399 1078.14 48.4251C1151.37 50.3588 1219.26 41.0886 1291.54 39.8834C1336.23 39.1497 1374.26 43.0276 1414.89 49.0382C1461.8 56.0236 1511.62 60.4779 1562.19 62.9409C1771.21 73.1228 1989.22 54.2209 2191.62 38.0859" stroke="url(#paint48_linear_101_202)" stroke-miterlimit="10"/>
<path d="M1.23206 28.1869C107.361 29.9791 197.153 53.7179 306.08 47.3089C393.697 42.1367 471.32 25.1842 558.983 20.2321C647.831 15.2171 745.427 25.5458 832.039 31.7609C913.267 37.6038 995.53 44.3377 1078.66 45.8102C1152.02 47.1098 1221.83 38.7148 1294.66 38.3637C1339.61 38.1488 1377.88 42.3306 1418.83 48.2679C1465.44 55.0227 1514.92 59.0945 1565.07 61.1172C1660.61 64.9689 1757.49 61.6884 1852.24 56.9774C1965.93 51.323 2079.79 45.1185 2191.65 36.016" stroke="url(#paint49_linear_101_202)" stroke-miterlimit="10"/>
<path d="M1.26263 25.572C107.255 27.4219 196.925 51.2026 305.746 45.3439C393.013 40.6275 470.788 24.3353 557.766 19.3937C645.687 14.3996 741.32 24.3091 827.172 30.2936C910.164 36.058 994.237 42.4983 1079.19 43.3054C1154.61 44.0233 1228.09 36.0894 1303.34 37.017C1348.77 37.5777 1386.63 42.6922 1428.26 48.3728C1471.5 54.2734 1517.17 57.6534 1563.35 59.2517C1661.65 62.6527 1759.13 57.6377 1856.26 52.9057C1968.36 47.4452 2081.48 43.2425 2191.73 34.1138" stroke="url(#paint50_linear_101_202)" stroke-miterlimit="10"/>
<path d="M1.27777 23.0723C108 25.0112 198.035 48.991 307.663 43.3576C394.945 38.8719 473.343 23.0094 560.458 18.4293C648.197 13.8388 743.069 23.6068 828.799 29.3974C911.396 34.9836 995.15 40.9261 1079.66 40.9261C1155.52 40.9261 1230.63 34.0455 1306.51 35.8011C1351.99 36.8491 1390.17 42.2571 1432.12 47.8171C1475.08 53.5082 1520.44 56.5318 1566.23 57.7266C1664.84 60.2996 1760.64 53.6811 1857.75 49.0801C1969.13 43.8031 2082.22 41.5549 2191.7 32.311" stroke="url(#paint51_linear_101_202)" stroke-miterlimit="10"/>
<path d="M1.30817 20.6933C108.836 22.7213 199.054 46.895 309.61 41.4817C396.922 37.2056 475.929 21.7885 563.166 17.5648C650.722 13.3149 744.849 23.0148 830.534 28.6167C912.674 33.9985 996.108 39.4065 1080.18 38.6414C1156.59 37.9445 1233.18 32.0963 1309.69 34.6693C1355.23 36.2047 1393.71 41.9009 1435.94 47.3404C1478.53 52.827 1523.68 55.4944 1569.04 56.2857C1667.91 58.0202 1762.13 49.8296 1859.21 45.3543C1969.89 40.2502 2082.81 39.9673 2191.65 30.608" stroke="url(#paint52_linear_101_202)" stroke-miterlimit="10"/>
<path d="M1.33862 18.4347C109.612 20.5308 200.21 44.9089 311.541 39.721C398.869 35.6492 478.485 20.6514 565.858 16.805C653.231 12.9586 746.598 22.5274 832.055 27.9354C913.998 33.1234 997.036 38.0231 1080.65 36.4877C1157.73 35.0728 1235.62 30.2726 1312.78 33.6527C1358.41 35.6492 1397.17 41.6547 1439.79 46.9684C1482.41 52.2821 1526.98 54.5669 1571.91 54.9651C1670.79 55.8507 1763.76 46.1247 1860.73 41.7752C1970.77 36.8388 2083.6 38.5157 2191.71 29.0202" stroke="url(#paint53_linear_101_202)" stroke-miterlimit="10"/>
<path d="M1.3537 16.2965C110.373 18.4974 201.29 43.0222 313.412 38.0753C400.786 34.2027 480.979 19.6608 568.474 16.1393C655.604 12.6335 748.393 22.1395 833.697 27.3641C915.397 32.3634 997.979 36.7495 1081.18 34.4595C1159.02 32.3162 1238.07 28.5589 1315.91 32.7302C1361.41 35.1722 1400.62 41.492 1443.55 46.6852C1485.68 51.7788 1530.25 53.7387 1574.7 53.7544C1673.57 53.7963 1765.36 42.582 1862.19 38.3478C1971.71 33.5582 2084.27 37.1897 2191.71 27.5423" stroke="url(#paint54_linear_101_202)" stroke-miterlimit="10"/>
<path d="M1.36902 14.2897C111.118 16.564 202.309 41.2931 315.238 36.5349C402.657 32.8667 483.428 18.7178 571.03 15.5736C658.069 12.4294 749.929 21.862 835.249 26.9032C916.781 31.7033 998.952 35.5969 1081.67 32.5627C1160.34 29.6805 1240.42 26.9661 1318.97 31.9129C1364.45 34.7689 1404 41.4084 1447.24 46.4811C1489.18 51.3965 1533.37 53.0053 1577.41 52.649C1676.13 51.8577 1766.95 39.2075 1863.65 35.0729C1972.55 30.4194 2084.82 36.0056 2191.76 26.1643" stroke="url(#paint55_linear_101_202)" stroke-miterlimit="10"/>
<path d="M1.39941 12.4082C111.833 14.7611 203.344 39.658 317.017 35.1093C404.482 31.6036 485.862 17.9106 573.509 15.0651C660.365 12.2458 751.481 21.6626 836.755 26.5152C918.135 31.1319 999.895 34.5382 1082.14 30.7756C1161.7 27.1388 1242.76 25.4514 1321.86 31.1581C1367.29 34.4333 1407.18 41.3873 1450.8 46.3551C1492.48 51.0714 1536.44 52.371 1580.1 51.6531C1678.56 50.0443 1768.61 36.0212 1865.14 31.9756C1973.52 27.4323 2085.46 34.9574 2191.88 24.9221" stroke="url(#paint56_linear_101_202)" stroke-miterlimit="10"/>
<path d="M1.41467 10.6581C112.457 13.0844 204.302 38.1594 318.706 33.7942C406.216 30.4508 488.053 17.1718 575.897 14.6407C662.601 12.1463 753.047 21.5475 838.185 26.2324C919.458 30.7129 1000.81 33.6055 1082.57 29.1303C1163.05 24.7284 1244.84 24.0471 1324.62 30.4928C1369.97 34.161 1410.23 41.4294 1454.15 46.2819C1495.61 50.862 1539.33 51.8105 1582.53 50.7519C1680.64 48.3466 1770.07 33.0291 1866.42 29.0359C1974.42 24.5764 2085.9 34.03 2191.85 23.7537" stroke="url(#paint57_linear_101_202)" stroke-miterlimit="10"/>
<path d="M1.42981 9.04919C113.172 11.5331 205.26 36.7758 320.303 32.5836C407.889 29.3974 490.228 16.5114 578.164 14.2895C664.731 12.1043 754.477 21.5055 839.539 26.0436C920.736 30.3774 1001.69 32.7879 1082.99 27.6157C1164.3 22.4435 1246.9 22.7474 1327.3 29.9057C1372.54 33.9356 1413.2 41.4345 1457.36 46.2661C1498.43 50.7675 1542.21 51.3335 1584.87 49.9343C1682.59 46.7901 1771.52 30.2359 1867.67 26.2952C1975.19 21.888 2086.36 33.2543 2191.85 22.7003" stroke="url(#paint58_linear_101_202)" stroke-miterlimit="10"/>
<path d="M1.5213 7.55042C113.872 10.0867 206.158 35.4971 321.885 31.4673C409.441 28.4332 492.266 15.935 580.309 14.0013C666.678 12.1043 755.847 21.5369 840.817 25.944C921.969 30.1363 1002.54 32.0909 1083.37 26.2375C1165.73 20.2792 1248.81 21.5212 1329.8 29.3817C1374.94 33.7521 1415.95 41.534 1460.37 46.2975C1501.27 50.6837 1544.82 50.9352 1587.05 49.253C1633.12 47.4137 1678.04 43.2004 1722.28 38.5261C1770.01 33.4901 1819.13 25.8078 1868.85 23.7745C1976.02 19.3883 2086.8 32.6412 2191.86 21.7727" stroke="url(#paint59_linear_101_202)" stroke-miterlimit="10"/>
<path d="M1.5213 6.24023C114.419 8.81848 206.873 34.3913 323.269 30.4978C410.901 27.5632 494.168 15.4108 582.317 13.7654C668.549 12.1356 757.079 21.6259 841.973 25.923C923.125 30.0209 1003.38 31.5144 1083.74 25.0006C1166.99 18.2511 1250.62 20.3944 1332.2 28.9361C1377.15 33.6525 1418.51 41.6702 1463.15 46.3655C1503.89 50.6469 1547.24 50.6154 1589.06 48.6451C1635.04 46.486 1679.7 41.906 1723.68 36.9329C1771.06 31.5773 1820.25 23.4967 1869.96 21.4477C1976.79 17.0511 2087.23 32.1642 2191.88 20.9237" stroke="url(#paint60_linear_101_202)" stroke-miterlimit="10"/>
<path d="M1.5213 5.05078C114.936 7.67095 207.634 33.3958 324.532 29.6175C412.225 26.7772 495.886 14.9917 584.112 13.5821C670.222 12.2038 758.159 21.8041 842.992 25.9912C924.159 29.9896 1004.12 31.0638 1084.01 23.895C1168.22 16.3647 1252.23 19.3517 1334.39 28.5485C1379.17 33.5582 1420.84 41.8222 1465.71 46.4652C1506.28 50.6575 1549.37 50.364 1590.88 48.1368C1636.76 45.6739 1681.19 40.748 1724.94 35.5024C1772 29.8585 1821.26 21.4216 1870.97 19.3412C1977.45 14.8869 2087.62 31.8394 2191.92 20.1954" stroke="url(#paint61_linear_101_202)" stroke-miterlimit="10"/>
<path d="M1.5213 4.00793C115.408 6.6281 208.257 32.5311 325.658 28.8419C413.457 26.0802 497.545 14.6196 585.861 13.4405C671.88 12.2877 759.269 22.0295 844.011 26.1326C925.208 30.0577 1004.95 30.7337 1084.35 22.9518C1169.42 14.6144 1253.65 18.3874 1336.38 28.1921C1381.01 33.4901 1422.95 41.9689 1468.01 46.57C1508.44 50.6941 1551.38 50.1701 1592.5 47.7071C1638.31 44.9612 1682.5 39.7208 1726.05 34.2237C1772.85 28.3074 1822.14 19.5822 1871.91 17.4546C1978.18 12.906 2088.08 31.656 2191.92 19.5508" stroke="url(#paint62_linear_101_202)" stroke-miterlimit="10"/>
<path d="M1.5213 3.11694C115.849 5.73711 208.79 31.8026 326.646 28.171C414.461 25.467 498.929 14.3103 587.321 13.3146C673.25 12.3661 760.06 22.2809 844.802 26.3264C926.045 30.2043 1005.63 30.5187 1084.58 22.1341C1170.54 13.0002 1254.81 17.486 1338.15 27.8985C1382.58 33.4533 1424.76 42.126 1469.98 46.6956C1510.29 50.7726 1553.02 50.0494 1593.85 47.3768C1639.6 44.3741 1683.6 38.8508 1726.96 33.1231C1773.55 26.9657 1822.79 18.0152 1872.7 15.83C1978.74 11.1399 2088.5 31.6558 2191.94 19.0161" stroke="url(#paint63_linear_101_202)" stroke-miterlimit="10"/>
<path d="M1.5213 2.37292C115.286 4.99309 207.923 31.0585 325.095 27.6785C417.686 25.0112 507.188 12.9637 600.616 13.2099C680.49 13.4196 760.638 22.4591 839.539 26.3475C923.368 30.4769 1003.61 30.3616 1084.79 21.5211C1174.81 11.7427 1259.16 16.8834 1345.92 28.5117C1384.82 33.7206 1421.87 40.8265 1461.05 45.7053C1502.52 50.867 1548.05 50.364 1590.72 47.4975C1639.13 44.2485 1685.48 38.0649 1731.15 31.7765C1777.17 25.4147 1826.11 16.459 1875.74 14.3628C1980.7 9.9557 2089.86 31.7136 2191.92 18.5918" stroke="url(#paint64_linear_101_202)" stroke-miterlimit="10"/>
<path d="M1.5213 1.78601C115.606 4.3695 208.242 30.6079 325.734 27.2226C418.355 24.55 508.268 12.7855 601.665 13.1785C681.479 13.5191 761.216 22.8103 840.071 26.7038C923.961 30.8437 1004.19 30.4349 1084.97 21.0181C1175.9 10.4116 1259.81 16.155 1347.29 28.3545C1386 33.7521 1423.16 40.9209 1462.45 45.8049C1503.83 50.9718 1549.16 50.364 1591.58 47.335C1639.97 43.8817 1686.14 37.4308 1731.66 30.9747C1777.63 24.4557 1826.55 15.4004 1876.31 13.1995C1981.07 8.59845 2090.34 31.9861 2191.94 18.2302" stroke="url(#paint65_linear_101_202)" stroke-miterlimit="10"/>
<path d="M1.5213 1.36682C115.834 3.90839 208.394 30.304 326.22 26.8663C418.857 24.1623 508.968 12.6493 602.487 13.1681C682.27 13.6083 761.627 23.1981 840.452 27.1231C924.387 31.3154 1004.73 30.6498 1085 20.667C1176.82 9.25353 1260.05 15.4791 1348.28 28.1921C1386.9 33.7521 1424.15 40.9943 1463.47 45.9359C1504.82 51.1291 1549.75 50.474 1592.15 47.3036C1690.09 39.9672 1777.84 16.9988 1876.73 12.3663C1981.31 7.46658 2090.88 32.4316 2191.94 17.9839" stroke="url(#paint66_linear_101_202)" stroke-miterlimit="10"/>
<path d="M1.5213 1.10022C116.016 3.58938 208.546 30.1422 326.509 26.6207C419.161 23.8485 509.577 12.5608 603.05 13.1635C682.848 13.6875 761.855 23.6127 840.649 27.6059C924.615 31.861 1005.23 31.0016 1085.05 20.479C1177.67 8.26376 1259.98 14.8509 1349.04 28.0775C1387.34 33.7528 1424.68 41.2727 1464.1 46.0204C1505.96 51.0564 1549.54 50.6476 1592.39 47.3357C1690.5 39.7477 1777.77 16.7584 1877.01 11.7905C1981.45 6.55017 2091.48 33.0401 2191.88 17.8274" stroke="url(#paint67_linear_101_202)" stroke-miterlimit="10"/>
<path d="M1.5213 1C116.138 3.4158 208.501 30.1258 326.585 26.4733C419.237 23.6068 509.774 12.5078 603.43 13.1576C683.243 13.7131 761.946 24.0575 840.725 28.145C924.691 32.4997 1005.74 31.4988 1085.08 20.4469C1178.41 7.43514 1259.57 14.2581 1349.48 27.9877C1431.62 40.5226 1499.3 54.7921 1592.31 47.4451C1690.68 39.6737 1777.54 16.8782 1877.13 11.5121C1981.45 5.88924 2092.06 33.8098 2192 17.8005" stroke="url(#paint68_linear_101_202)" stroke-miterlimit="10"/>
</g>
</g>
<defs>
<linearGradient id="paint0_linear_101_202" x1="1.57916e+06" y1="380.67" x2="1.57916e+06" y2="306.45" gradientUnits="userSpaceOnUse">
<stop stop-color="#C84116"/>
<stop offset="1" stop-color="#79808B"/>
</linearGradient>
<linearGradient id="paint1_linear_101_202" x1="1.57912e+06" y1="602.196" x2="1.57912e+06" y2="358.169" gradientUnits="userSpaceOnUse">
<stop stop-color="#C84116"/>
<stop offset="1" stop-color="#79808B"/>
</linearGradient>
<linearGradient id="paint2_linear_101_202" x1="1.57916e+06" y1="875.386" x2="1.57916e+06" y2="424.729" gradientUnits="userSpaceOnUse">
<stop stop-color="#C84116"/>
<stop offset="1" stop-color="#79808B"/>
</linearGradient>
<linearGradient id="paint3_linear_101_202" x1="1.57916e+06" y1="1283.09" x2="1.57916e+06" y2="527.74" gradientUnits="userSpaceOnUse">
<stop stop-color="#C84116"/>
<stop offset="1" stop-color="#79808B"/>
</linearGradient>
<linearGradient id="paint4_linear_101_202" x1="1.57916e+06" y1="1960.14" x2="1.57916e+06" y2="702.349" gradientUnits="userSpaceOnUse">
<stop stop-color="#C84116"/>
<stop offset="1" stop-color="#79808B"/>
</linearGradient>
<linearGradient id="paint5_linear_101_202" x1="1.57916e+06" y1="2704.78" x2="1.57916e+06" y2="895.366" gradientUnits="userSpaceOnUse">
<stop stop-color="#C84116"/>
<stop offset="1" stop-color="#79808B"/>
</linearGradient>
<linearGradient id="paint6_linear_101_202" x1="1.57916e+06" y1="3611.07" x2="1.57916e+06" y2="1131.35" gradientUnits="userSpaceOnUse">
<stop stop-color="#C84116"/>
<stop offset="1" stop-color="#79808B"/>
</linearGradient>
<linearGradient id="paint7_linear_101_202" x1="1.57914e+06" y1="4564" x2="1.57914e+06" y2="1379.89" gradientUnits="userSpaceOnUse">
<stop stop-color="#C84116"/>
<stop offset="1" stop-color="#79808B"/>
</linearGradient>
<linearGradient id="paint8_linear_101_202" x1="1.57917e+06" y1="5519.78" x2="1.57917e+06" y2="1629.34" gradientUnits="userSpaceOnUse">
<stop stop-color="#C84116"/>
<stop offset="1" stop-color="#79808B"/>
</linearGradient>
<linearGradient id="paint9_linear_101_202" x1="1.57913e+06" y1="6428.31" x2="1.57913e+06" y2="1866.3" gradientUnits="userSpaceOnUse">
<stop stop-color="#C84116"/>
<stop offset="1" stop-color="#79808B"/>
</linearGradient>
<linearGradient id="paint10_linear_101_202" x1="1.57916e+06" y1="7329.57" x2="1.57916e+06" y2="2101.13" gradientUnits="userSpaceOnUse">
<stop stop-color="#C84116"/>
<stop offset="1" stop-color="#79808B"/>
</linearGradient>
<linearGradient id="paint11_linear_101_202" x1="1.57916e+06" y1="8021.7" x2="1.57916e+06" y2="2280.64" gradientUnits="userSpaceOnUse">
<stop stop-color="#C84116"/>
<stop offset="1" stop-color="#79808B"/>
</linearGradient>
<linearGradient id="paint12_linear_101_202" x1="1.57916e+06" y1="8534.34" x2="1.57916e+06" y2="2412.44" gradientUnits="userSpaceOnUse">
<stop stop-color="#C84116"/>
<stop offset="1" stop-color="#79808B"/>
</linearGradient>
<linearGradient id="paint13_linear_101_202" x1="1.5792e+06" y1="8807.77" x2="1.5792e+06" y2="2480.61" gradientUnits="userSpaceOnUse">
<stop stop-color="#C84116"/>
<stop offset="1" stop-color="#79808B"/>
</linearGradient>
<linearGradient id="paint14_linear_101_202" x1="1.57916e+06" y1="8928.86" x2="1.57916e+06" y2="2507.97" gradientUnits="userSpaceOnUse">
<stop stop-color="#C84116"/>
<stop offset="1" stop-color="#79808B"/>
</linearGradient>
<linearGradient id="paint15_linear_101_202" x1="1.57913e+06" y1="9051.6" x2="1.57913e+06" y2="2535.76" gradientUnits="userSpaceOnUse">
<stop stop-color="#C84116"/>
<stop offset="1" stop-color="#79808B"/>
</linearGradient>
<linearGradient id="paint16_linear_101_202" x1="1.57914e+06" y1="9120.83" x2="1.57914e+06" y2="2549.66" gradientUnits="userSpaceOnUse">
<stop stop-color="#C84116"/>
<stop offset="1" stop-color="#79808B"/>
</linearGradient>
<linearGradient id="paint17_linear_101_202" x1="1.57919e+06" y1="9140.37" x2="1.57919e+06" y2="2550.61" gradientUnits="userSpaceOnUse">
<stop stop-color="#C84116"/>
<stop offset="1" stop-color="#79808B"/>
</linearGradient>
<linearGradient id="paint18_linear_101_202" x1="1.57916e+06" y1="9116.39" x2="1.57916e+06" y2="2540.27" gradientUnits="userSpaceOnUse">
<stop stop-color="#C84116"/>
<stop offset="1" stop-color="#79808B"/>
</linearGradient>
<linearGradient id="paint19_linear_101_202" x1="1.57916e+06" y1="9052.99" x2="1.57916e+06" y2="2519.68" gradientUnits="userSpaceOnUse">
<stop stop-color="#C84116"/>
<stop offset="1" stop-color="#79808B"/>
</linearGradient>
<linearGradient id="paint20_linear_101_202" x1="1.57917e+06" y1="8908.13" x2="1.57917e+06" y2="2477.85" gradientUnits="userSpaceOnUse">
<stop stop-color="#C84116"/>
<stop offset="1" stop-color="#79808B"/>
</linearGradient>
<linearGradient id="paint21_linear_101_202" x1="1.57918e+06" y1="8811.06" x2="1.57918e+06" y2="2448.66" gradientUnits="userSpaceOnUse">
<stop stop-color="#C84116"/>
<stop offset="1" stop-color="#79808B"/>
</linearGradient>
<linearGradient id="paint22_linear_101_202" x1="1.57912e+06" y1="8693.87" x2="1.57912e+06" y2="2414.28" gradientUnits="userSpaceOnUse">
<stop stop-color="#C84116"/>
<stop offset="1" stop-color="#79808B"/>
</linearGradient>
<linearGradient id="paint23_linear_101_202" x1="1.57916e+06" y1="8569.47" x2="1.57916e+06" y2="2378.12" gradientUnits="userSpaceOnUse">
<stop stop-color="#C84116"/>
<stop offset="1" stop-color="#79808B"/>
</linearGradient>
<linearGradient id="paint24_linear_101_202" x1="1.5792e+06" y1="8437.96" x2="1.5792e+06" y2="2340.17" gradientUnits="userSpaceOnUse">
<stop stop-color="#C84116"/>
<stop offset="1" stop-color="#79808B"/>
</linearGradient>
<linearGradient id="paint25_linear_101_202" x1="1.57914e+06" y1="8304.7" x2="1.57914e+06" y2="2301.83" gradientUnits="userSpaceOnUse">
<stop stop-color="#C84116"/>
<stop offset="1" stop-color="#79808B"/>
</linearGradient>
<linearGradient id="paint26_linear_101_202" x1="1.57916e+06" y1="8131.21" x2="1.57916e+06" y2="2252.97" gradientUnits="userSpaceOnUse">
<stop stop-color="#C84116"/>
<stop offset="1" stop-color="#79808B"/>
</linearGradient>
<linearGradient id="paint27_linear_101_202" x1="1.57912e+06" y1="8007.05" x2="1.57912e+06" y2="2217.15" gradientUnits="userSpaceOnUse">
<stop stop-color="#C84116"/>
<stop offset="1" stop-color="#79808B"/>
</linearGradient>
<linearGradient id="paint28_linear_101_202" x1="1.57913e+06" y1="7896.38" x2="1.57913e+06" y2="2184.91" gradientUnits="userSpaceOnUse">
<stop stop-color="#C84116"/>
<stop offset="1" stop-color="#79808B"/>
</linearGradient>
<linearGradient id="paint29_linear_101_202" x1="1.57912e+06" y1="7809.41" x2="1.57912e+06" y2="2158.96" gradientUnits="userSpaceOnUse">
<stop stop-color="#C84116"/>
<stop offset="1" stop-color="#79808B"/>
</linearGradient>
<linearGradient id="paint30_linear_101_202" x1="1.5792e+06" y1="7734.39" x2="1.5792e+06" y2="2136.12" gradientUnits="userSpaceOnUse">
<stop stop-color="#C84116"/>
<stop offset="1" stop-color="#79808B"/>
</linearGradient>
<linearGradient id="paint31_linear_101_202" x1="1.57916e+06" y1="7697.17" x2="1.57916e+06" y2="2123.25" gradientUnits="userSpaceOnUse">
<stop stop-color="#C84116"/>
<stop offset="1" stop-color="#79808B"/>
</linearGradient>
<linearGradient id="paint32_linear_101_202" x1="1.57916e+06" y1="7679.32" x2="1.57916e+06" y2="2115.48" gradientUnits="userSpaceOnUse">
<stop stop-color="#C84116"/>
<stop offset="1" stop-color="#79808B"/>
</linearGradient>
<linearGradient id="paint33_linear_101_202" x1="1.57919e+06" y1="7630.18" x2="1.57919e+06" y2="2099.41" gradientUnits="userSpaceOnUse">
<stop stop-color="#C84116"/>
<stop offset="1" stop-color="#79808B"/>
</linearGradient>
<linearGradient id="paint34_linear_101_202" x1="1.57916e+06" y1="7556.33" x2="1.57916e+06" y2="2076.84" gradientUnits="userSpaceOnUse">
<stop stop-color="#C84116"/>
<stop offset="1" stop-color="#79808B"/>
</linearGradient>
<linearGradient id="paint35_linear_101_202" x1="1.57919e+06" y1="7448.61" x2="1.57919e+06" y2="2045.29" gradientUnits="userSpaceOnUse">
<stop stop-color="#C84116"/>
<stop offset="1" stop-color="#79808B"/>
</linearGradient>
<linearGradient id="paint36_linear_101_202" x1="1.57916e+06" y1="7319.58" x2="1.57916e+06" y2="2008.15" gradientUnits="userSpaceOnUse">
<stop stop-color="#C84116"/>
<stop offset="1" stop-color="#79808B"/>
</linearGradient>
<linearGradient id="paint37_linear_101_202" x1="1.57919e+06" y1="7165.32" x2="1.57919e+06" y2="1964.33" gradientUnits="userSpaceOnUse">
<stop stop-color="#C84116"/>
<stop offset="1" stop-color="#79808B"/>
</linearGradient>
<linearGradient id="paint38_linear_101_202" x1="1.57915e+06" y1="6993.34" x2="1.57915e+06" y2="1915.89" gradientUnits="userSpaceOnUse">
<stop stop-color="#C84116"/>
<stop offset="1" stop-color="#79808B"/>
</linearGradient>
<linearGradient id="paint39_linear_101_202" x1="1.57916e+06" y1="6798.6" x2="1.57916e+06" y2="1861.44" gradientUnits="userSpaceOnUse">
<stop stop-color="#C84116"/>
<stop offset="1" stop-color="#79808B"/>
</linearGradient>
<linearGradient id="paint40_linear_101_202" x1="1.57914e+06" y1="6582.46" x2="1.57914e+06" y2="1801.35" gradientUnits="userSpaceOnUse">
<stop stop-color="#C84116"/>
<stop offset="1" stop-color="#79808B"/>
</linearGradient>
<linearGradient id="paint41_linear_101_202" x1="1.57916e+06" y1="6359.54" x2="1.57916e+06" y2="1739.56" gradientUnits="userSpaceOnUse">
<stop stop-color="#C84116"/>
<stop offset="1" stop-color="#79808B"/>
</linearGradient>
<linearGradient id="paint42_linear_101_202" x1="1.57916e+06" y1="6118.61" x2="1.57916e+06" y2="1673.03" gradientUnits="userSpaceOnUse">
<stop stop-color="#C84116"/>
<stop offset="1" stop-color="#79808B"/>
</linearGradient>
<linearGradient id="paint43_linear_101_202" x1="1.57916e+06" y1="5875.83" x2="1.57916e+06" y2="1606.12" gradientUnits="userSpaceOnUse">
<stop stop-color="#C84116"/>
<stop offset="1" stop-color="#79808B"/>
</linearGradient>
<linearGradient id="paint44_linear_101_202" x1="1.57916e+06" y1="5620.35" x2="1.57916e+06" y2="1535.9" gradientUnits="userSpaceOnUse">
<stop stop-color="#C84116"/>
<stop offset="1" stop-color="#79808B"/>
</linearGradient>
<linearGradient id="paint45_linear_101_202" x1="1.57916e+06" y1="5366.04" x2="1.57916e+06" y2="1466.11" gradientUnits="userSpaceOnUse">
<stop stop-color="#C84116"/>
<stop offset="1" stop-color="#79808B"/>
</linearGradient>
<linearGradient id="paint46_linear_101_202" x1="1.57908e+06" y1="5117.07" x2="1.57908e+06" y2="1397.87" gradientUnits="userSpaceOnUse">
<stop stop-color="#C84116"/>
<stop offset="1" stop-color="#79808B"/>
</linearGradient>
<linearGradient id="paint47_linear_101_202" x1="1.57922e+06" y1="4850.42" x2="1.57922e+06" y2="1324.97" gradientUnits="userSpaceOnUse">
<stop stop-color="#C84116"/>
<stop offset="1" stop-color="#79808B"/>
</linearGradient>
<linearGradient id="paint48_linear_101_202" x1="1.57916e+06" y1="4686.02" x2="1.57916e+06" y2="1279.73" gradientUnits="userSpaceOnUse">
<stop stop-color="#C84116"/>
<stop offset="1" stop-color="#79808B"/>
</linearGradient>
<linearGradient id="paint49_linear_101_202" x1="1.57916e+06" y1="4483.43" x2="1.57916e+06" y2="1224.29" gradientUnits="userSpaceOnUse">
<stop stop-color="#C84116"/>
<stop offset="1" stop-color="#79808B"/>
</linearGradient>
<linearGradient id="paint50_linear_101_202" x1="1.57919e+06" y1="4322.4" x2="1.57919e+06" y2="1180.17" gradientUnits="userSpaceOnUse">
<stop stop-color="#C84116"/>
<stop offset="1" stop-color="#79808B"/>
</linearGradient>
<linearGradient id="paint51_linear_101_202" x1="1.57916e+06" y1="4192.14" x2="1.57916e+06" y2="1144.42" gradientUnits="userSpaceOnUse">
<stop stop-color="#C84116"/>
<stop offset="1" stop-color="#79808B"/>
</linearGradient>
<linearGradient id="paint52_linear_101_202" x1="1.57911e+06" y1="4083.83" x2="1.57911e+06" y2="1114.65" gradientUnits="userSpaceOnUse">
<stop stop-color="#C84116"/>
<stop offset="1" stop-color="#79808B"/>
</linearGradient>
<linearGradient id="paint53_linear_101_202" x1="1.57913e+06" y1="3991.7" x2="1.57913e+06" y2="1089.34" gradientUnits="userSpaceOnUse">
<stop stop-color="#C84116"/>
<stop offset="1" stop-color="#79808B"/>
</linearGradient>
<linearGradient id="paint54_linear_101_202" x1="1.57912e+06" y1="3916.76" x2="1.57912e+06" y2="1068.72" gradientUnits="userSpaceOnUse">
<stop stop-color="#C84116"/>
<stop offset="1" stop-color="#79808B"/>
</linearGradient>
<linearGradient id="paint55_linear_101_202" x1="1.57914e+06" y1="3919.11" x2="1.57914e+06" y2="1068.56" gradientUnits="userSpaceOnUse">
<stop stop-color="#C84116"/>
<stop offset="1" stop-color="#79808B"/>
</linearGradient>
<linearGradient id="paint56_linear_101_202" x1="1.57921e+06" y1="4021.18" x2="1.57921e+06" y2="1094.74" gradientUnits="userSpaceOnUse">
<stop stop-color="#C84116"/>
<stop offset="1" stop-color="#79808B"/>
</linearGradient>
<linearGradient id="paint57_linear_101_202" x1="1.57917e+06" y1="4126.94" x2="1.57917e+06" y2="1122.02" gradientUnits="userSpaceOnUse">
<stop stop-color="#C84116"/>
<stop offset="1" stop-color="#79808B"/>
</linearGradient>
<linearGradient id="paint58_linear_101_202" x1="1.57916e+06" y1="4234.57" x2="1.57916e+06" y2="1149.9" gradientUnits="userSpaceOnUse">
<stop stop-color="#C84116"/>
<stop offset="1" stop-color="#79808B"/>
</linearGradient>
<linearGradient id="paint59_linear_101_202" x1="1.57911e+06" y1="4345.28" x2="1.57911e+06" y2="1178.7" gradientUnits="userSpaceOnUse">
<stop stop-color="#C84116"/>
<stop offset="1" stop-color="#79808B"/>
</linearGradient>
<linearGradient id="paint60_linear_101_202" x1="1.57912e+06" y1="4447.9" x2="1.57912e+06" y2="1205.45" gradientUnits="userSpaceOnUse">
<stop stop-color="#C84116"/>
<stop offset="1" stop-color="#79808B"/>
</linearGradient>
<linearGradient id="paint61_linear_101_202" x1="1.57915e+06" y1="4548.24" x2="1.57915e+06" y2="1231.67" gradientUnits="userSpaceOnUse">
<stop stop-color="#C84116"/>
<stop offset="1" stop-color="#79808B"/>
</linearGradient>
<linearGradient id="paint62_linear_101_202" x1="1.57915e+06" y1="4640.79" x2="1.57915e+06" y2="1255.9" gradientUnits="userSpaceOnUse">
<stop stop-color="#C84116"/>
<stop offset="1" stop-color="#79808B"/>
</linearGradient>
<linearGradient id="paint63_linear_101_202" x1="1.57916e+06" y1="4725.73" x2="1.57916e+06" y2="1278.18" gradientUnits="userSpaceOnUse">
<stop stop-color="#C84116"/>
<stop offset="1" stop-color="#79808B"/>
</linearGradient>
<linearGradient id="paint64_linear_101_202" x1="1.57915e+06" y1="4807.16" x2="1.57915e+06" y2="1299.62" gradientUnits="userSpaceOnUse">
<stop stop-color="#C84116"/>
<stop offset="1" stop-color="#79808B"/>
</linearGradient>
<linearGradient id="paint65_linear_101_202" x1="1.57916e+06" y1="4868.44" x2="1.57916e+06" y2="1315.74" gradientUnits="userSpaceOnUse">
<stop stop-color="#C84116"/>
<stop offset="1" stop-color="#79808B"/>
</linearGradient>
<linearGradient id="paint66_linear_101_202" x1="1.57916e+06" y1="4921.69" x2="1.57916e+06" y2="1329.81" gradientUnits="userSpaceOnUse">
<stop stop-color="#C84116"/>
<stop offset="1" stop-color="#79808B"/>
</linearGradient>
<linearGradient id="paint67_linear_101_202" x1="1.57912e+06" y1="4954.22" x2="1.57912e+06" y2="1338.4" gradientUnits="userSpaceOnUse">
<stop stop-color="#C84116"/>
<stop offset="1" stop-color="#79808B"/>
</linearGradient>
<linearGradient id="paint68_linear_101_202" x1="1.57921e+06" y1="4927.12" x2="1.57921e+06" y2="1331.01" gradientUnits="userSpaceOnUse">
<stop stop-color="#C84116"/>
<stop offset="1" stop-color="#79808B"/>
</linearGradient>
</defs>
</svg>
