<svg width="20" height="20" viewBox="0 0 20 20" fill="#EB7F00" xmlns="http://www.w3.org/2000/svg">
<path fill-rule="evenodd" clip-rule="evenodd" d="M12.65 9.51016H19.4764C19.7878 9.51016 20.0752 9.80719 20.0752 10.129C20.0752 10.4755 19.8117 10.7478 19.4764 10.7478H12.65C12.3866 12.0102 11.2848 12.9508 9.99136 12.9508C8.69795 12.9508 7.59615 12.0102 7.33268 10.7478H0.673998C0.338668 10.7478 0.0751953 10.4755 0.0751953 10.129C0.0751953 9.78244 0.338668 9.51016 0.673998 9.51016H7.33268C7.59615 8.24778 8.69795 7.30719 9.99136 7.30719C11.2848 7.30719 12.3866 8.24778 12.65 9.51016ZM8.4585 10.129C8.4585 10.9953 9.15311 11.7131 9.99143 11.7131C10.8298 11.7131 11.5244 10.9953 11.5244 10.129C11.5244 9.26265 10.8298 8.54483 9.99143 8.54483C9.15311 8.54483 8.4585 9.26265 8.4585 10.129Z" fill="#EB7F00"/>
<path fill-rule="evenodd" clip-rule="evenodd" d="M5.48834 3.59428C5.22487 4.85666 4.12307 5.79725 2.82966 5.79725C1.32068 5.79725 0.0991211 4.51012 0.0991211 2.97547C0.0991211 1.44082 1.32068 0.153687 2.82966 0.153687C4.12307 0.153687 5.22487 1.09428 5.48834 2.35666H19.4524C19.7877 2.35666 20.0512 2.62893 20.0512 2.97547C20.0512 3.322 19.7877 3.59428 19.4524 3.59428H5.48834ZM4.36274 2.9755C4.36274 2.10916 3.66813 1.39134 2.82981 1.39134C1.99149 1.39134 1.29688 2.10916 1.29688 2.9755C1.29688 3.84183 1.99149 4.55966 2.82981 4.55966C3.66813 4.55966 4.36274 3.84183 4.36274 2.9755Z" fill="#EB7F00"/>
<path fill-rule="evenodd" clip-rule="evenodd" d="M14.662 16.6883C14.9494 15.4507 16.0273 14.5101 17.3207 14.5101C18.8057 14.5101 20.0512 15.7725 20.0512 17.3319C20.0512 18.8913 18.8297 20.1537 17.3207 20.1537C16.0273 20.1537 14.9255 19.1883 14.662 17.926H0.673998C0.338668 17.926 0.0751953 17.6537 0.0751953 17.3072C0.0751953 16.9606 0.338668 16.6883 0.673998 16.6883H14.662ZM15.7876 17.3071C15.7876 18.1735 16.4822 18.8913 17.3205 18.8913C18.1589 18.8913 18.8535 18.1735 18.8535 17.3071C18.8535 16.4408 18.1589 15.723 17.3205 15.723C16.4822 15.723 15.7876 16.4408 15.7876 17.3071Z" fill="#EB7F00"/>
</svg>
