<svg width="20" height="14" viewBox="0 0 20 14" fill="#FEFEFE" xmlns="http://www.w3.org/2000/svg">
<path d="M0 7.49997V6.49997C0 6.22383 0.223858 5.99997 0.5 5.99997H16.67L12.22 1.55997C12.1253 1.46609 12.0721 1.33829 12.0721 1.20497C12.0721 1.07166 12.1253 0.943858 12.22 0.849974L12.93 0.149974C13.0239 0.055318 13.1517 0.0020752 13.285 0.0020752C13.4183 0.0020752 13.5461 0.055318 13.64 0.149974L19.78 6.27997C19.9207 6.42049 19.9998 6.61113 20 6.80997V7.18997C19.9977 7.38839 19.9189 7.57825 19.78 7.71997L13.64 13.85C13.5461 13.9446 13.4183 13.9979 13.285 13.9979C13.1517 13.9979 13.0239 13.9446 12.93 13.85L12.22 13.14C12.1259 13.0478 12.0729 12.9217 12.0729 12.79C12.0729 12.6583 12.1259 12.5321 12.22 12.44L16.67 7.99997H0.5C0.223858 7.99997 0 7.77612 0 7.49997Z" fill="#FEFEFE"/>
</svg>
