<svg width="43" height="24" viewBox="0 0 43 24" fill="none" xmlns="http://www.w3.org/2000/svg">
<path d="M12.5002 11.3333C13.4231 11.3333 14.3254 11.0596 15.0928 10.5469C15.8603 10.0341 16.4584 9.30524 16.8116 8.45252C17.1648 7.5998 17.2572 6.66149 17.0772 5.75625C16.8971 4.851 16.4526 4.01948 15.8 3.36684C15.1474 2.71419 14.3158 2.26974 13.4106 2.08967C12.5053 1.90961 11.567 2.00202 10.7143 2.35523C9.86159 2.70844 9.13275 3.30658 8.61997 4.07401C8.10719 4.84144 7.8335 5.74369 7.8335 6.66667C7.8335 7.90434 8.32516 9.09133 9.20033 9.9665C10.0755 10.8417 11.2625 11.3333 12.5002 11.3333ZM12.5002 3.33334C13.1594 3.33334 13.8039 3.52883 14.3521 3.8951C14.9002 4.26137 15.3275 4.78197 15.5798 5.39106C15.8321 6.00014 15.8981 6.67037 15.7695 7.31697C15.6408 7.96357 15.3234 8.55751 14.8572 9.02369C14.391 9.48986 13.7971 9.80733 13.1505 9.93595C12.5039 10.0646 11.8336 9.99856 11.2246 9.74627C10.6155 9.49397 10.0949 9.06673 9.7286 8.51857C9.36233 7.9704 9.16683 7.32594 9.16683 6.66667C9.16683 5.78261 9.51802 4.93477 10.1431 4.30965C10.7683 3.68452 11.6161 3.33334 12.5002 3.33334V3.33334Z" fill="#A1A1A1"/>
<path d="M20.8135 16.2468C19.7444 15.1168 18.456 14.2167 17.0272 13.6016C15.5984 12.9865 14.0591 12.6692 12.5035 12.6692C10.9479 12.6692 9.40862 12.9865 7.9798 13.6016C6.55098 14.2167 5.26263 15.1168 4.1935 16.2468C3.96171 16.4944 3.83297 16.821 3.8335 17.1601V19.4668C3.8335 19.8204 3.97397 20.1595 4.22402 20.4096C4.47407 20.6596 4.81321 20.8001 5.16683 20.8001H19.8335C20.1871 20.8001 20.5263 20.6596 20.7763 20.4096C21.0264 20.1595 21.1668 19.8204 21.1668 19.4668V17.1601C21.1692 16.8219 21.0429 16.4954 20.8135 16.2468ZM19.8335 19.4668H5.16683V17.1534C6.11165 16.1586 7.24902 15.3663 8.50974 14.825C9.77045 14.2836 11.1281 14.0044 12.5002 14.0044C13.8722 14.0044 15.2299 14.2836 16.4906 14.825C17.7513 15.3663 18.8887 16.1586 19.8335 17.1534V19.4668Z" fill="#A1A1A1"/>
<path d="M29.9315 9.63143C30.0956 9.4674 30.3181 9.37524 30.5501 9.37524C30.7821 9.37524 31.0046 9.4674 31.1687 9.63143L35.5 13.9627L39.8312 9.63143C39.9963 9.47204 40.2173 9.38385 40.4467 9.38584C40.6761 9.38784 40.8956 9.47986 41.0578 9.64209C41.2201 9.80432 41.3121 10.0238 41.3141 10.2532C41.3161 10.4826 41.2279 10.7037 41.0685 10.8687L36.1186 15.8186C35.9545 15.9826 35.732 16.0747 35.5 16.0747C35.268 16.0747 35.0454 15.9826 34.8814 15.8186L29.9315 10.8687C29.7674 10.7046 29.6753 10.4821 29.6753 10.2501C29.6753 10.018 29.7674 9.79552 29.9315 9.63143Z" fill="#A1A1A1"/>
</svg>
