<svg width="15" height="13" viewBox="0 0 15 13" fill="none" xmlns="http://www.w3.org/2000/svg">
<path fill-rule="evenodd" clip-rule="evenodd" d="M4.00016 8.48097C3.99429 8.71349 4.15539 8.91999 4.39089 8.98176C4.62639 9.04352 4.87582 8.94473 4.99584 8.74214L5.63619 7.6613C6.39558 6.37943 7.90734 5.6772 9.43576 5.89621L9.54172 5.91141C9.56081 6.36942 9.58785 6.8273 9.62284 7.28471L9.67102 7.91355C9.71013 8.42495 10.309 8.71085 10.7628 8.43475C12.2515 7.52899 13.5456 6.36199 14.5763 4.99579L14.9 4.56673C15.0333 4.39005 15.0333 4.15207 14.9 3.97538L14.5763 3.54633C13.5456 2.18015 12.2515 1.0131 10.7628 0.107366C10.309 -0.168726 9.71013 0.117157 9.67102 0.628562L9.62284 1.25743C9.59459 1.6262 9.5716 1.99524 9.55371 2.36445H8.83112C6.23037 2.36445 4.1047 4.34037 4.0422 6.81602L4.00016 8.48097ZM9.59424 4.8939C7.87732 4.64785 6.17672 5.30602 5.12337 6.57532C5.30903 4.77575 6.90208 3.37805 8.83112 3.37805H10.065C10.3519 3.37805 10.5872 3.16157 10.597 2.88858C10.6157 2.36907 10.6448 1.84982 10.6846 1.33113L10.6884 1.28081C11.8547 2.06579 12.8768 3.031 13.7118 4.13769L13.8123 4.27106L13.7118 4.40443C12.8768 5.5111 11.8547 6.47633 10.6884 7.26133L10.6846 7.21099C10.6399 6.62722 10.6085 6.04277 10.5905 5.45806C10.5829 5.21304 10.3923 5.00826 10.1376 4.97178L9.59424 4.8939Z" fill="white"/>
<path d="M11.7669 10.0466C11.8482 9.3536 11.9055 8.65849 11.939 7.96255C11.9425 7.88722 11.9768 7.81664 12.0335 7.76674C12.2838 7.54626 12.5263 7.31719 12.7605 7.07994C12.8487 6.99066 13.0027 7.05307 13 7.17836C12.9785 8.17622 12.9095 9.17333 12.7931 10.1663C12.6302 11.5564 11.5113 12.6457 10.1254 12.8003C7.73774 13.0666 5.26952 13.0666 2.8818 12.8003C1.49591 12.6457 0.377082 11.5564 0.214149 10.1663C-0.0713829 7.73038 -0.0713829 5.26958 0.214149 2.83365C0.377082 1.44361 1.49591 0.354261 2.8818 0.199713C4.4598 0.0237346 6.07293 -0.0359488 7.67478 0.0206762C7.80965 0.0254391 7.9025 0.157177 7.88562 0.290784C7.88218 0.318605 7.87935 0.346749 7.87729 0.375196L7.84195 0.858917C7.83383 0.969975 7.73884 1.05447 7.62733 1.05057C6.07954 0.99638 4.52071 1.05428 2.99655 1.22425C2.08039 1.32642 1.34649 2.0478 1.24034 2.95341C0.964139 5.30978 0.964139 7.69025 1.24034 10.0466C1.34649 10.9522 2.08039 11.6736 2.99655 11.7757C5.30803 12.0335 7.69923 12.0335 10.0107 11.7757C10.9268 11.6736 11.6607 10.9522 11.7669 10.0466Z" fill="white"/>
</svg>
