<svg width="16" height="15" viewBox="0 0 16 15" fill="none" xmlns="http://www.w3.org/2000/svg">
<path fill-rule="evenodd" clip-rule="evenodd" d="M0.804838 11.791C0.464971 11.4865 0.464971 10.993 0.804838 10.6885C0.810743 10.6832 0.816711 10.6781 0.82274 10.6729C0.828608 10.6674 0.834579 10.6619 0.840652 10.6565L3.84595 7.96456C4.2056 7.64242 4.7887 7.64242 5.14835 7.96456C5.508 8.2867 5.508 8.809 5.14835 9.13114L3.50801 10.6004H14.0175C14.448 10.6004 14.797 10.9494 14.797 11.3799C14.797 11.8104 14.448 12.1594 14.0175 12.1594H3.67774L5.36323 13.6691C5.7031 13.9736 5.7031 14.4671 5.36323 14.7716C5.02336 15.076 4.47233 15.076 4.13246 14.7716L0.840653 11.823L0.804838 11.791ZM15.1952 4.24628C15.535 3.94185 15.535 3.44828 15.1952 3.14385C15.1918 3.14084 15.1884 3.13787 15.185 3.13492C15.1824 3.13268 15.1799 3.13046 15.1773 3.12826C15.1714 3.12271 15.1654 3.11721 15.1593 3.11177L12.1541 0.419864C11.7944 0.0977192 11.2113 0.0977201 10.8517 0.419865C10.492 0.742008 10.492 1.26431 10.8517 1.58645L12.492 3.05574H1.98156C1.55105 3.05574 1.20205 3.40474 1.20205 3.83524C1.20205 4.26575 1.55105 4.61475 1.98156 4.61475H12.3223L10.6368 6.12448C10.2969 6.42891 10.2969 6.92248 10.6368 7.22691C10.9767 7.53134 11.5277 7.53134 11.8675 7.22691L15.1593 4.27836L15.1952 4.24628Z" fill="#F6931A"/>
</svg>
