<svg width="24" height="21" viewBox="0 0 24 21" fill="none" xmlns="http://www.w3.org/2000/svg">
<path fill-rule="evenodd" clip-rule="evenodd" d="M18.4011 20.6497C18.3766 20.6741 18.3513 20.697 18.3251 20.7184C18.2204 20.8038 18.1024 20.8648 17.9787 20.9014C17.8254 20.9468 17.6635 20.9547 17.5072 20.9251C17.3166 20.8891 17.1344 20.7973 16.9868 20.6497L16.6861 20.349L12.3988 16.0617C12.0082 15.6711 12.0082 15.038 12.3988 14.6474L12.7993 14.2469C13.1898 13.8564 13.823 13.8564 14.2135 14.2469L16.699 16.7325L16.699 1.99998C16.699 1.44769 17.1468 0.999975 17.699 0.999975H18.1243C18.6766 0.999975 19.1243 1.44769 19.1243 1.99998L19.1243 16.4966L21.6235 13.9974C22.014 13.6069 22.6472 13.6069 23.0377 13.9974L23.3385 14.2981C23.729 14.6886 23.729 15.3218 23.3385 15.7123L18.8016 20.2492L18.4011 20.6497ZM6.66399 0.292892C6.63958 0.268486 6.61423 0.245604 6.58804 0.224247C6.4833 0.138819 6.36529 0.0777988 6.2416 0.0411873C6.08837 -0.00416374 5.92642 -0.012064 5.77015 0.0174904C5.5795 0.0535469 5.39732 0.145348 5.24978 0.292892L4.94905 0.59362L0.661695 4.88097C0.271172 5.2715 0.271172 5.90466 0.661695 6.29519L1.06223 6.69572C1.45275 7.08625 2.08592 7.08625 2.47644 6.69572L4.96199 4.21018L4.96199 18.9427C4.96199 19.4949 5.4097 19.9427 5.96199 19.9427H6.38728C6.93957 19.9427 7.38728 19.4949 7.38728 18.9427L7.38728 4.44607L9.88645 6.94524C10.277 7.33576 10.9101 7.33576 11.3007 6.94524L11.6014 6.64451C11.9919 6.25399 11.9919 5.62082 11.6014 5.2303L7.06452 0.693428L6.66399 0.292892Z" fill="#F6931A"/>
</svg>
